<svg width="32" height="28" viewBox="0 0 32 28" fill="none" xmlns="http://www.w3.org/2000/svg">
<path d="M9.37658 26.7131C9.90911 26.7131 10.3408 26.2814 10.3408 25.7488C10.3408 25.2163 9.90911 24.7846 9.37658 24.7846C8.84405 24.7846 8.41235 25.2163 8.41235 25.7488C8.41235 26.2814 8.84405 26.7131 9.37658 26.7131Z" stroke="#0D7B8A" stroke-width="2" stroke-linecap="round" stroke-linejoin="round"/>
<path d="M22.8758 26.7131C23.4083 26.7131 23.84 26.2814 23.84 25.7488C23.84 25.2163 23.4083 24.7846 22.8758 24.7846C22.3433 24.7846 21.9116 25.2163 21.9116 25.7488C21.9116 26.2814 22.3433 26.7131 22.8758 26.7131Z" stroke="#0D7B8A" stroke-width="2" stroke-linecap="round" stroke-linejoin="round"/>
<path d="M1.66275 5.5H5.51967L8.41235 21.8919H23.84" stroke="#0D7B8A" stroke-width="2" stroke-linecap="round" stroke-linejoin="round"/>
<path d="M8.41235 18.035H23.4447C23.5562 18.0351 23.6643 17.9965 23.7505 17.9258C23.8368 17.8552 23.8959 17.7568 23.9178 17.6475L25.6534 8.96943C25.6674 8.89945 25.6657 8.82724 25.6484 8.758C25.6311 8.68877 25.5986 8.62423 25.5534 8.56906C25.5081 8.51388 25.4512 8.46944 25.3867 8.43894C25.3221 8.40844 25.2517 8.39265 25.1803 8.3927H6.48389" stroke="#0D7B8A" stroke-width="2" stroke-linecap="round" stroke-linejoin="round"/>
<circle cx="25.6628" cy="6.5" r="6" fill="#FF5959"/>
</svg>
